<?xml version="1.0" encoding="utf-8"?>
<!-- Generator: Adobe Illustrator 26.0.2, SVG Export Plug-In . SVG Version: 6.00 Build 0)  -->
<svg version="1.1" id="Layer_1" xmlns="http://www.w3.org/2000/svg" xmlns:xlink="http://www.w3.org/1999/xlink" x="0px" y="0px"
	 viewBox="0 0 412 412" style="enable-background:new 0 0 412 412;" xml:space="preserve">
<style type="text/css">
	.st0{display:none;fill:none;}
	.st1{fill:#0076B7;}
</style>
<path class="st0" d="M50,0h312c27.6,0,50,22.4,50,50v312c0,27.6-22.4,50-50,50H50c-27.6,0-50-22.4-50-50V50C0,22.4,22.4,0,50,0z"/>
<path class="st0" d="M0,0"/>
<g>
	<path class="st1" d="M75.3,182.9c-10.4-3.4-16.9-15.7-13.9-27.4c3.1-12.3,10.8-21.2,21-28.2c6.7-4.6,14-7.6,22.3-7.4
		c6.9,0.2,12.6,3.1,16.8,8.6c5.1,6.8,3.1,16.9-4.1,21.3c-0.8,0.5-1.2,1.4-1.9,2c-1,0.9-1.9,2.2-3,2.4c-1,0.2-2.7-0.5-3.3-1.4
		c-0.4-0.6,0-2.4,0.7-3.2c1.5-1.7,3.4-3.1,5-4.7c2.9-3.1,5.2-6.7,3.6-11.2c-1.7-4.7-5.6-7.2-10.3-8.2c-5-1.1-9.8,0.2-14.2,2.3
		c-11.2,5.4-19.6,13.6-25.1,24.8c-1.1,2.2-1.9,4.7-2.3,7.1c-1.7,9.8,4.2,16.8,14.8,17.7c1.7,0.1,3.5-0.1,5.1,0.3
		c1.2,0.3,2.7,1.2,3,2.1c0.2,0.8-0.8,2.5-1.7,3.1c-7.5,5.2-15.2,10.1-22.5,15.4c-12.3,9-20.5,20.9-23,36.2
		c-2.4,14.7,6.2,24.5,21.1,24.4c9.4,0,17.8-3.3,25.9-7.7c14.3-7.9,26.4-18.7,37.5-30.6c6.9-7.4,13.4-15.3,20-23
		c2.3-2.6,4.4-2.5,5.8,0.7c0.7,1.7,1.2,3.7,1.3,5.5c0.2,3.6,0.1,7.3,0.1,10.9c0,1.1,0.2,2.2,1,3.5c0.6-1,1.3-2,1.7-3
		c3.3-7.6,6.5-15.1,9.8-22.7c0.8-1.8,1.4-4.2,4.2-3.3c2.5,0.8,2.7,2.9,2.3,5.2c-0.8,4.5-1.5,9.1-2.2,13.6c-0.3,1.9-0.3,3.7-0.4,5.6
		c0.3,0.1,0.5,0.3,0.8,0.4c0.8-0.8,2-1.4,2.5-2.3c4.5-7.6,8.8-15.2,13.2-22.9c0.9-1.6,1.6-3.3,2.7-4.7c1.6-2,3.4-1.9,4.6,0.3
		c1.1,2.1,1.9,4.4,2.7,6.6c4.6,13.1,7.8,15.5,21.7,16.1c13.5,0.6,26.8-1.3,40.1-3.3c24.9-3.6,49.7-7.6,74.9-7.5
		c6.1,0,12.3,0.5,18.4,0.8c2,0.1,3.5,0.9,3.3,3.1c-0.2,2.2-1.8,2.6-3.8,2.5c-24.6-2.2-49,0.6-73.4,4c-17.6,2.4-35,6-52.8,6.1
		c-5,0-10-0.4-14.9-1c-9.6-1.3-15.4-7-18-16.2c-0.4-1.3-0.7-2.5-1.3-4.3c-1.9,4-3.3,7.5-5.2,10.8c-2.4,4.3-5.1,8.6-7.9,12.7
		c-1,1.5-2.6,2.9-4.2,3.9c-3.9,2.5-7.2,1.1-8.2-3.5c-0.4-1.9-0.3-4-0.5-6.5c-0.5,0.9-0.7,1.5-1,2c-1.9,3.8-3.5,7.9-5.9,11.5
		c-2.8,4.2-6.6,3.7-8.2-1.2c-1-3.1-1.1-6.6-1.4-9.9c-0.2-1.8,0-3.5,0-6.1c-1.6,1.9-2.6,3.2-3.7,4.4c-12.5,14-25.2,27.9-40.7,38.8
		c-10.7,7.6-22,14.1-35.3,15.9c-8.4,1.1-16.5,0-23.5-5.3c-6.6-5-9.9-11.9-9.7-19.9c0.2-11.3,4.2-21.4,11.3-30.3
		c7.4-9.4,16.1-17.4,26-24.2C73.4,184.2,74.2,183.7,75.3,182.9z"/>
	<path class="st1" d="M372.6,200.4c-2.1-0.3-4.2-0.7-4.2-3.2c0.1-2.4,2.1-3.1,4.1-3c2,0,4.1,0.7,4,3.1
		C376.6,199.7,374.4,200.1,372.6,200.4z"/>
</g>
</svg>
